<?xml version="1.0" encoding="UTF-8"?>
<svg xmlns="http://www.w3.org/2000/svg" xmlns:xlink="http://www.w3.org/1999/xlink" width="125px" height="125px" viewBox="0 0 125 125" version="1.1">
  <g id="surface1">
    <path style=" stroke:none;fill-rule:nonzero;fill:rgb(8.627451%,8.627451%,8.627451%);fill-opacity:1;" d="M 125 62.5 C 125 97.019531 97.019531 125 62.5 125 C 27.980469 125 0 97.019531 0 62.5 C 0 27.980469 27.980469 0 62.5 0 C 97.019531 0 125 27.980469 125 62.5 Z M 125 62.5 "></path>
    <path style=" stroke:none;fill-rule:nonzero;fill:rgb(100%,100%,100%);fill-opacity:1;" d="M 45.917969 84.082031 L 31.5 98.082031 L 31.5 41.167969 L 45.917969 27.082031 Z M 45.917969 84.082031 "></path>
    <path style=" stroke:none;fill-rule:nonzero;fill:rgb(100%,100%,100%);fill-opacity:1;" d="M 69.667969 84.082031 L 55.25 98.082031 L 55.25 41.167969 L 69.667969 27.082031 Z M 69.667969 84.082031 "></path>
    <path style=" stroke:none;fill-rule:nonzero;fill:rgb(100%,100%,100%);fill-opacity:1;" d="M 93.5 83.832031 L 79.082031 97.917969 L 79.082031 40.917969 L 93.5 26.917969 Z M 93.5 83.832031 "></path>
  </g>
</svg>
