<?xml version="1.0" encoding="UTF-8"?>
<svg xmlns="http://www.w3.org/2000/svg" xmlns:xlink="http://www.w3.org/1999/xlink" width="60px" height="60px" viewBox="0 0 60 60" version="1.1">
  <g id="surface1">
    <path style=" stroke:none;fill-rule:nonzero;fill:rgb(8.627451%,8.627451%,8.627451%);fill-opacity:1;" d="M 60 30 C 60 46.570312 46.570312 60 30 60 C 13.429688 60 0 46.570312 0 30 C 0 13.429688 13.429688 0 30 0 C 46.570312 0 60 13.429688 60 30 Z M 60 30 "></path>
    <path style=" stroke:none;fill-rule:nonzero;fill:rgb(100%,100%,100%);fill-opacity:1;" d="M 22.039062 40.359375 L 15.121094 47.078125 L 15.121094 19.761719 L 22.039062 13 Z M 22.039062 40.359375 "></path>
    <path style=" stroke:none;fill-rule:nonzero;fill:rgb(100%,100%,100%);fill-opacity:1;" d="M 33.441406 40.359375 L 26.519531 47.078125 L 26.519531 19.761719 L 33.441406 13 Z M 33.441406 40.359375 "></path>
    <path style=" stroke:none;fill-rule:nonzero;fill:rgb(100%,100%,100%);fill-opacity:1;" d="M 44.878906 40.238281 L 37.960938 47 L 37.960938 19.640625 L 44.878906 12.921875 Z M 44.878906 40.238281 "></path>
  </g>
</svg>
