<?xml version="1.0" encoding="UTF-8"?>
<!-- Generator: Adobe Illustrator 26.4.1, SVG Export Plug-In . SVG Version: 6.00 Build 0)  -->
<svg xmlns="http://www.w3.org/2000/svg" xmlns:xlink="http://www.w3.org/1999/xlink" version="1.1" id="图层_1" x="0px" y="0px" viewBox="0 0 2223.5 512" style="enable-background:new 0 0 2223.5 512;" xml:space="preserve">
<style type="text/css">
	.st0{fill:#7EFF00;}
</style>
<g>
	<path class="st0" d="M256,0C114.6,0,0,114.6,0,256s114.6,256,256,256s256-114.6,256-256S397.4,0,256,0z M188.2,344.4l-59.1,57.3   V168.5l59.1-57.5V344.4z M285.3,344.3l-59.1,57.5V168.5l59.1-57.5V344.3z M382.9,343.5L323.8,401V167.7l59.1-57.5V343.5z"></path>
	<g>
		<path class="st0" d="M588.3,409.6V111.7h51.8l94.4,192.9l93.9-192.9h51.8v297.9h-50v-216l-80.5,164.7h-30.5l-80.9-164.7v216H588.3    z"></path>
		<path class="st0" d="M983.8,414.2c-13.9,0-26.8-2.5-38.6-7.4c-11.9-4.9-21.4-12.4-28.4-22.4c-7.1-10-10.6-22.4-10.6-37.2    c0-21,7.2-37.9,21.5-50.7c14.3-12.8,36.5-19.2,66.4-19.2h70.3v-9.7c0-10.5-1.6-18.8-4.9-25c-3.2-6.2-9.1-10.6-17.6-13.4    c-8.5-2.8-20.9-4.2-37.2-4.2c-25.9,0-50.1,3.9-72.6,11.6v-37.5c9.9-4,21.9-7.2,36.1-9.7c14.2-2.5,29.4-3.7,45.8-3.7    c32.1,0,56.5,6.5,73.3,19.4c16.8,13,25.2,34.1,25.2,63.4v141.1h-43l-3.2-22.2c-8.9,8.6-20,15.3-33.1,19.9    C1019.9,411.9,1003.5,414.2,983.8,414.2z M997.2,378.1c15.1,0,28.3-2.5,39.6-7.6c11.3-5.1,20.4-11.9,27.5-20.6v-38.4h-69.4    c-14.8,0-25.5,2.9-32.1,8.6c-6.6,5.7-9.9,14.4-9.9,26.1c0,11.4,3.9,19.6,11.6,24.5C972.1,375.7,983,378.1,997.2,378.1z"></path>
		<path class="st0" d="M1145.2,409.6V97.8h50.4v180.4l92.1-87.9h57.8l-89.3,88.4l94.4,130.9h-53.2l-72.6-104.1l-29.1,27.8v76.3    H1145.2z"></path>
		<path class="st0" d="M1413.5,414.2c-13.9,0-26.8-2.5-38.6-7.4c-11.9-4.9-21.4-12.4-28.4-22.4c-7.1-10-10.6-22.4-10.6-37.2    c0-21,7.2-37.9,21.5-50.7c14.3-12.8,36.5-19.2,66.4-19.2h70.3v-9.7c0-10.5-1.6-18.8-4.9-25c-3.2-6.2-9.1-10.6-17.6-13.4    c-8.5-2.8-20.9-4.2-37.2-4.2c-25.9,0-50.1,3.9-72.6,11.6v-37.5c9.9-4,21.9-7.2,36.1-9.7c14.2-2.5,29.4-3.7,45.8-3.7    c32.1,0,56.5,6.5,73.3,19.4c16.8,13,25.2,34.1,25.2,63.4v141.1h-43l-3.2-22.2c-8.9,8.6-20,15.3-33.1,19.9    C1449.7,411.9,1433.2,414.2,1413.5,414.2z M1426.9,378.1c15.1,0,28.3-2.5,39.6-7.6c11.3-5.1,20.4-11.9,27.5-20.6v-38.4h-69.4    c-14.8,0-25.5,2.9-32.1,8.6c-6.6,5.7-9.9,14.4-9.9,26.1c0,11.4,3.9,19.6,11.6,24.5C1401.8,375.7,1412.7,378.1,1426.9,378.1z"></path>
		<path class="st0" d="M1629.5,414.2c-17.9,0-31.5-4.4-40.7-13.2c-9.3-8.8-13.9-23.4-13.9-43.7V97.8h50.4v254.9    c0,8.6,1.5,14.5,4.6,17.6c3.1,3.1,7.7,4.6,13.9,4.6c7.4,0,14.5-0.9,21.3-2.8v36.5c-5.9,2.2-11.5,3.6-16.9,4.4    C1642.9,413.8,1636.6,414.2,1629.5,414.2z"></path>
		<path class="st0" d="M1687.8,409.6V228.7h-33.3l4.6-38.4h79.1v219.3H1687.8z M1683.7,144.5v-41.6h55v41.6H1683.7z"></path>
		<path class="st0" d="M1773.9,409.6V190.3h46.3l2.3,23.1c9.9-7.7,21.7-14.3,35.4-19.7c13.7-5.4,28.9-8.1,45.6-8.1    c28.4,0,49,6.6,62,19.9c13,13.3,19.4,33.9,19.4,62v142h-50V269.9c0-17-3.5-28.8-10.4-35.6c-6.9-6.8-20-10.2-39.1-10.2    c-11.4,0-22.6,2.3-33.5,6.9c-11,4.6-20.1,10.6-27.5,18v160.5H1773.9z"></path>
		<path class="st0" d="M2018.1,409.6V97.8h50.4v180.4l92.1-87.9h57.8l-89.3,88.4l94.4,130.9h-53.2l-72.6-104.1l-29.1,27.8v76.3    H2018.1z"></path>
	</g>
</g>
</svg>
