<?xml version="1.0" encoding="UTF-8" standalone="no"?>
<svg xmlns="http://www.w3.org/2000/svg" version="1.0" width="500.000000pt" height="500.000000pt" viewBox="0 0 500.000000 500.000000" preserveAspectRatio="xMidYMid meet">
  <g transform="translate(0.000000,500.000000) scale(0.100000,-0.100000)" fill="#000000" stroke="none">
    <path d="M2230 4979 c-345 -27 -786 -185 -1105 -397 -691 -458 -1114 -1235 -1115 -2047 0 -624 185 -1157 560 -1613 233 -283 506 -501 825 -657 355 -174 628 -241 1035 -252 291 -8 472 12 716 77 729 196 1330 714 1636 1410 275 626 277 1357 6 1990 -345 806 -1115 1383 -1983 1486 -128 15 -402 16 -575 3z m1358 -3478 c-84 -82 -214 -208 -288 -279 l-135 -130 -3 1134 -2 1134 182 178 c101 99 230 224 288 280 l105 100 3 -1133 2 -1134 -152 -150z m-1748 1276 l0 -1132 -23 -25 c-51 -54 -539 -525 -548 -528 -5 -2 -9 459 -9 1131 l0 1134 98 93 c53 51 181 176 284 277 103 100 189 183 192 183 3 0 6 -510 6 -1133z m950 0 l0 -1133 -276 -270 c-152 -148 -283 -273 -290 -277 -12 -7 -14 169 -14 1125 l0 1133 282 277 c156 152 286 277 291 277 4 1 7 -509 7 -1132z"></path>
  </g>
</svg>
